<svg viewBox="0 0 80 80" fill="none" xmlns="http://www.w3.org/2000/svg">
<path d="M27.4858 23.5101C27.4858 20.2064 24.1787 17.5111 20.11 17.5111C16.0413 17.5111 12.7343 20.2064 12.7343 23.5101C12.7343 26.8139 16.0413 29.5091 20.11 29.5091C24.1787 29.5091 27.4858 26.8139 27.4858 23.5101ZM14.1068 23.5101C14.1068 20.8319 16.7963 18.6484 20.1103 18.6484C23.4242 18.6484 26.1138 20.8262 26.1138 23.5101C26.1138 26.194 23.4242 28.3719 20.1103 28.3719C16.7963 28.3719 14.1068 26.1884 14.1068 23.5101Z" fill="currentColor"/>
<path d="M71.5696 24.647H32.8378L32.1242 24.2888C32.1516 24.0272 32.1654 23.7656 32.1654 23.5098C32.1654 23.2539 32.1516 22.998 32.1242 22.7308L34.8755 21.3319C35.15 21.1954 35.2666 20.9168 35.1706 20.6666L34.3403 18.6026C34.2443 18.358 33.9561 18.1988 33.6405 18.2159L30.3952 18.3979C30.059 17.9543 29.6816 17.5279 29.263 17.1355L30.4706 14.7017C30.5941 14.4572 30.4912 14.1729 30.2305 14.0194L28.0692 12.7457C27.8154 12.5978 27.4723 12.6092 27.239 12.7684L24.7415 14.4629C24.1377 14.2582 23.5202 14.0933 22.8889 13.9739L22.0999 11.4208C22.0382 11.1763 21.7637 11 21.4481 11H18.7722C18.4566 11 18.1821 11.1763 18.1067 11.4265L17.3176 13.9796C16.6864 14.099 16.0689 14.2639 15.4651 14.4686L12.9676 12.7741C12.7274 12.6092 12.3844 12.6035 12.1374 12.7514L9.97612 14.0251C9.71539 14.1786 9.61933 14.4629 9.73597 14.7074L10.9435 17.1412C10.525 17.5392 10.1476 17.96 9.81141 18.4035L6.56608 18.2216C6.25046 18.2045 5.96915 18.3637 5.86623 18.6083L5.03603 20.6723C4.93311 20.9225 5.05661 21.1955 5.33106 21.3376L8.08239 22.7364C8.05495 22.998 8.04122 23.2596 8.04122 23.5155C8.04122 23.7713 8.05495 24.0272 8.08239 24.2945L5.33106 25.6933C5.05661 25.8298 4.93997 26.1084 5.03603 26.3586L5.86623 28.4227C5.96229 28.6672 6.25046 28.8264 6.56608 28.8093L9.81141 28.6274C10.1476 29.0709 10.525 29.4973 10.9435 29.8897L9.73597 32.3235C9.61248 32.568 9.71539 32.8523 9.97612 33.0058L12.1374 34.2795C12.3912 34.4274 12.7343 34.416 12.9676 34.2568L14.6211 33.1309V57.0586C14.6211 58.6279 16.158 59.9017 18.0517 59.9017H36.5771V67.8628H29.7159C29.3385 67.8628 29.0298 68.1186 29.0298 68.4314C29.0298 68.7441 29.3385 69 29.7159 69H59.9052C60.2826 69 60.5913 68.7441 60.5913 68.4314C60.5913 68.1186 60.2826 67.8628 59.9052 67.8628H53.044V59.9017H71.5694C73.4631 59.9017 75 58.6279 75 57.0586V27.4902C75 25.9208 73.4633 24.647 71.5696 24.647ZM14.9235 31.4534L12.5153 33.0911L11.2253 32.3291L12.3917 29.9807C12.4946 29.776 12.4397 29.5371 12.2545 29.3722C11.6918 28.8775 11.1979 28.3316 10.793 27.7403C10.6626 27.5526 10.4225 27.4446 10.148 27.456L7.01248 27.6322L6.52534 26.4154L9.18059 25.0677C9.407 24.954 9.53737 24.7379 9.50307 24.5161C9.45504 24.1693 9.42759 23.8338 9.42759 23.5097C9.42759 23.1856 9.45504 22.8444 9.50307 22.5032C9.53737 22.2815 9.407 22.0654 9.18059 21.9517L6.52534 20.604L7.01248 19.3871L10.148 19.5634C10.4156 19.5805 10.6558 19.4667 10.793 19.2791C11.1978 18.6877 11.6918 18.1419 12.2545 17.6471C12.4397 17.4822 12.4946 17.2491 12.3917 17.0387L11.2253 14.6903L12.5153 13.9283L14.9235 15.5659C15.1225 15.7024 15.4038 15.7308 15.644 15.6455C16.4056 15.3612 17.2014 15.1508 18.0111 15.0201C18.2718 14.9803 18.4776 14.8153 18.5463 14.605L19.3078 12.1372H20.9202L21.6818 14.5993C21.7504 14.8097 21.9562 14.9746 22.217 15.0144C23.0266 15.1452 23.8293 15.3556 24.5841 15.6399C24.8242 15.7308 25.0987 15.6967 25.3045 15.5603L27.7128 13.9226L29.0027 14.6846L27.8364 17.033C27.7334 17.2377 27.7883 17.4766 27.9736 17.6415C28.5362 18.1362 29.0302 18.6821 29.435 19.2734C29.5654 19.4611 29.8124 19.5748 30.08 19.5577L33.2156 19.3815L33.7027 20.5983L31.0474 21.946C30.821 22.0597 30.6907 22.2758 30.725 22.4976C30.773 22.8444 30.8004 23.1799 30.8004 23.504C30.8004 23.8281 30.773 24.1693 30.725 24.5105C30.6907 24.7322 30.821 24.9483 31.0474 25.062L33.7027 26.4097L33.2156 27.6266L30.08 27.4503C29.8124 27.4389 29.5723 27.547 29.435 27.7346C29.0234 28.326 28.5363 28.8719 27.9736 29.3666C27.7883 29.5315 27.7334 29.7646 27.8364 29.975L29.0027 32.3234L27.7128 33.0854L25.3045 31.4478C25.1055 31.3113 24.8242 31.2829 24.5841 31.3682C23.8225 31.6525 23.0266 31.8629 22.217 31.9937C21.9562 32.0335 21.7504 32.1984 21.6818 32.4088L20.9133 34.8822H19.301L18.5394 32.4201C18.4708 32.2097 18.2649 32.0448 18.0042 32.005C17.1946 31.8742 16.3919 31.6638 15.6371 31.3795C15.4038 31.2885 15.1294 31.317 14.9235 31.4534ZM51.6723 67.8621H37.95V59.901H51.6723V67.8621ZM73.6282 57.0581C73.6282 57.9963 72.7019 58.764 71.5698 58.764H18.052C16.9199 58.764 15.9936 57.9963 15.9936 57.0581V55.2328H73.6277L73.6282 57.0581ZM21.4831 54.0956V43.9801H26.972V54.0956H21.4831ZM35.2055 54.0956V38.2935H40.6944V54.0956H35.2055ZM48.9279 54.0956V41.7056H54.4168V54.0956H48.9279ZM62.6503 54.0956V35.4505H68.1392V54.0956H62.6503ZM73.6282 54.0956H69.5115V34.8821C69.5115 34.5693 69.2027 34.3135 68.8253 34.3135H61.9641C61.5868 34.3135 61.278 34.5693 61.278 34.8821V54.0956H55.7891V41.1364C55.7891 40.8236 55.4803 40.5678 55.1029 40.5678H48.2417C47.8644 40.5678 47.5556 40.8236 47.5556 41.1364V54.0956H42.0667V37.725C42.0667 37.4123 41.7579 37.1564 41.3806 37.1564H34.5194C34.142 37.1564 33.8332 37.4123 33.8332 37.725V54.0956H28.3443V43.4109C28.3443 43.0981 28.0355 42.8423 27.6582 42.8423H20.797C20.4196 42.8423 20.1108 43.0981 20.1108 43.4109V54.0956H15.9941V32.7095C16.4332 32.8403 16.8723 32.954 17.3252 33.0393L18.1142 35.5924C18.1897 35.8426 18.4641 36.0189 18.7797 36.0189H21.4556C21.7712 36.0189 22.0457 35.8426 22.1212 35.5924L22.9102 33.0393C23.5414 32.9199 24.159 32.755 24.7627 32.5503L27.2603 34.2447C27.5004 34.4096 27.8435 34.4153 28.0905 34.2675L30.2517 32.9938C30.5124 32.8402 30.6085 32.5559 30.4919 32.3114L29.2843 29.8777C29.7028 29.4853 30.0802 29.0589 30.4164 28.6153L33.6618 28.7973C33.9774 28.8143 34.2587 28.6551 34.3616 28.4106L35.1918 26.3465C35.2741 26.1475 35.2055 25.9314 35.0408 25.7836H71.5701C72.7022 25.7836 73.6285 26.5512 73.6285 27.4895L73.6282 54.0956Z" fill="currentColor"/>
<path d="M65.3939 28.0591C63.8775 28.0591 62.6494 29.0769 62.6494 30.3336C62.6494 30.4814 62.67 30.6293 62.7043 30.7714L53.7568 35.1271C53.2491 34.6324 52.5081 34.314 51.671 34.314C50.6144 34.314 49.7087 34.8144 49.249 35.5365L40.6863 33.1142C40.6451 31.8917 39.4375 30.9022 37.9486 30.9022C36.4323 30.9022 35.2042 31.92 35.2042 33.1767C35.2042 33.2961 35.2247 33.4042 35.2453 33.5179L26.3804 37.4755C25.8796 36.941 25.1043 36.5884 24.226 36.5884C22.7097 36.5884 21.4816 37.6062 21.4816 38.8629C21.4816 40.1196 22.7097 41.1374 24.226 41.1374C25.7424 41.1374 26.9705 40.1196 26.9705 38.8629C26.9705 38.7435 26.9499 38.6355 26.9294 38.5218L35.7942 34.5641C36.2951 35.0986 37.0704 35.4512 37.9486 35.4512C39.0052 35.4512 39.911 34.9508 40.3706 34.2287L48.9334 36.651C48.9746 37.8735 50.1822 38.863 51.671 38.863C53.1874 38.863 54.4155 37.8452 54.4155 36.5885C54.4155 36.4406 54.3949 36.2928 54.3606 36.1506L63.3081 31.795C63.8158 32.2897 64.5568 32.6081 65.3939 32.6081C66.9102 32.6081 68.1384 31.5903 68.1384 30.3336C68.1384 29.0769 66.9102 28.0591 65.3939 28.0591ZM24.2267 40C23.4719 40 22.8544 39.4883 22.8544 38.8628C22.8544 38.2373 23.4719 37.7255 24.2267 37.7255C24.9814 37.7255 25.5989 38.2373 25.5989 38.8628C25.5989 39.4883 24.9814 40 24.2267 40ZM37.9491 34.3138C37.1943 34.3138 36.5768 33.802 36.5768 33.1765C36.5768 32.5511 37.1943 32.0393 37.9491 32.0393C38.7038 32.0393 39.3213 32.5511 39.3213 33.1765C39.3213 33.802 38.7038 34.3138 37.9491 34.3138ZM51.6715 37.7255C50.9167 37.7255 50.2992 37.2138 50.2992 36.5883C50.2992 35.9628 50.9167 35.451 51.6715 35.451C52.4262 35.451 53.0437 35.9628 53.0437 36.5883C53.0437 37.2138 52.4262 37.7255 51.6715 37.7255ZM65.3939 31.4706C64.6391 31.4706 64.0216 30.9589 64.0216 30.3334C64.0216 29.7079 64.6391 29.1961 65.3939 29.1961C66.1486 29.1961 66.7661 29.7079 66.7661 30.3334C66.7661 30.9589 66.1486 31.4706 65.3939 31.4706Z" fill="currentColor"/>
</svg>
