<?xml version="1.0" standalone="no"?>
<!DOCTYPE svg PUBLIC "-//W3C//DTD SVG 20010904//EN"
 "http://www.w3.org/TR/2001/REC-SVG-20010904/DTD/svg10.dtd">
<svg version="1.0" xmlns="http://www.w3.org/2000/svg"
 viewBox="0 0 242 242"
 preserveAspectRatio="xMidYMid meet">

<g transform="translate(0.000000,237.000000) scale(0.100000,-0.100000)"
fill="#FFFFFF" stroke="none">
<path d="M762 2354 c-227 -50 -408 -206 -502 -435 -61 -147 -75 -230 -74 -429
0 -155 16 -261 60 -404 28 -90 25 -84 88 -219 194 -419 550 -736 941 -839 101
-26 278 -32 367 -12 210 47 355 159 451 350 32 63 64 164 72 229 3 28 8 64 11
80 l4 30 -22 -26 c-13 -14 -32 -37 -43 -52 -26 -36 -119 -108 -170 -131 -61
-28 -155 -44 -229 -40 -340 19 -760 385 -885 773 -77 237 -71 510 15 685 105
215 320 333 529 290 l59 -12 -24 19 c-43 34 -202 107 -280 129 -96 27 -278 34
-368 14z"/>
<path d="M1223 2084 c-33 -7 -78 -21 -100 -32 -109 -56 -193 -194 -219 -357
l-6 -40 39 36 c74 69 132 92 232 91 193 -3 395 -152 507 -375 104 -205 97
-452 -16 -580 -59 -67 -129 -100 -223 -105 l-80 -5 54 -34 c187 -120 352 -136
521 -52 109 55 195 190 232 364 14 66 16 257 3 311 -27 110 -41 161 -48 174
-4 8 -19 41 -33 72 -145 334 -565 593 -863 532z"/>
<path d="M1118 1654 c-108 -27 -170 -119 -174 -258 -4 -151 55 -295 172 -413
98 -100 177 -138 289 -138 71 0 85 3 119 27 84 58 124 162 112 286 -28 290
-301 552 -518 496z"/>
</g>
</svg>
