<?xml version="1.0" encoding="utf-8"?>
<!-- Generator: Adobe Illustrator 24.3.0, SVG Export Plug-In . SVG Version: 6.00 Build 0)  -->
<svg version="1.1" id="Camada_1" xmlns="http://www.w3.org/2000/svg" xmlns:xlink="http://www.w3.org/1999/xlink" x="0px" y="0px"
	 viewBox="0 0 48 48" style="enable-background:new 0 0 48 48;" xml:space="preserve">
<style type="text/css">
	.st0{fill:#001B38;}
	.st1{fill:#40F5DE;}
	.st2{fill:#FFFFFF;}
</style>
<path class="st0" d="M38.4,48H9.6C4.3,48,0,43.7,0,38.4V9.6C0,4.3,4.3,0,9.6,0h28.8C43.7,0,48,4.3,48,9.6v28.8
	C48,43.7,43.7,48,38.4,48z"/>
<g>
	<path class="st1" d="M33.7,24c0,5.3-4.3,9.7-9.7,9.7c-5.3,0-9.7-4.3-9.7-9.7c0-5.3,4.2-9.6,9.5-9.7V8.6C15.4,8.7,8.6,15.6,8.6,24
		c0,8.5,6.9,15.4,15.4,15.4c8.5,0,15.4-6.9,15.4-15.4c0,0,0,0,0,0L33.7,24L33.7,24z"/>
	<path class="st2" d="M39.3,11.5C39.3,11.5,39.3,11.5,39.3,11.5c0-0.8-0.3-1.5-0.9-2c-0.5-0.5-1.2-0.8-2-0.8c0,0,0,0,0,0l-10.8,0
		v5.7l8,0l0,7.8h5.7L39.3,11.5z"/>
</g>
</svg>
