<svg xmlns="http://www.w3.org/2000/svg" xmlns:xlink="http://www.w3.org/1999/xlink" version="1.1" viewBox="0 0 256 256" xml:space="preserve">

<defs>
</defs>
<g style="stroke: none; stroke-width: 0; stroke-dasharray: none; stroke-linecap: butt; stroke-linejoin: miter; stroke-miterlimit: 10; fill: none; fill-rule: nonzero; opacity: 1;" transform="translate(1.4065934065934016 1.4065934065934016) scale(2.81 2.81)" >
	<path d="M 6.577 88.125 c -1.104 0 -2 -0.896 -2 -2 V 3.875 c 0 -1.104 0.896 -2 2 -2 s 2 0.896 2 2 v 82.25 C 8.577 87.229 7.681 88.125 6.577 88.125 z" style="stroke: none; stroke-width: 1; stroke-dasharray: none; stroke-linecap: butt; stroke-linejoin: miter; stroke-miterlimit: 10; fill: currentColor; fill-rule: nonzero; opacity: 1;" transform=" matrix(1 0 0 1 0 0) " stroke-linecap="round" />
	<path d="M 88 83.548 H 2 c -1.104 0 -2 -0.896 -2 -2 s 0.896 -2 2 -2 h 86 c 1.104 0 2 0.896 2 2 S 89.104 83.548 88 83.548 z" style="stroke: none; stroke-width: 1; stroke-dasharray: none; stroke-linecap: butt; stroke-linejoin: miter; stroke-miterlimit: 10; fill: currentColor; fill-rule: nonzero; opacity: 1;" transform=" matrix(1 0 0 1 0 0) " stroke-linecap="round" />
	<path d="M 11.155 11.296 c -0.569 0 -1.133 -0.241 -1.529 -0.71 L 6.577 6.976 l -3.048 3.611 c -0.713 0.845 -1.975 0.951 -2.818 0.238 c -0.844 -0.713 -0.951 -1.975 -0.238 -2.818 l 4.577 -5.421 c 0.76 -0.899 2.296 -0.9 3.057 0 l 4.577 5.421 c 0.712 0.844 0.606 2.105 -0.238 2.818 C 12.069 11.142 11.61 11.296 11.155 11.296 z" style="stroke: none; stroke-width: 1; stroke-dasharray: none; stroke-linecap: butt; stroke-linejoin: miter; stroke-miterlimit: 10; fill: currentColor; fill-rule: nonzero; opacity: 1;" transform=" matrix(1 0 0 1 0 0) " stroke-linecap="round" />
	<path d="M 82.58 88.125 c -0.568 0 -1.134 -0.241 -1.529 -0.71 c -0.713 -0.844 -0.605 -2.105 0.238 -2.818 l 3.61 -3.049 l -3.61 -3.049 c -0.844 -0.713 -0.951 -1.975 -0.238 -2.818 c 0.713 -0.845 1.977 -0.949 2.818 -0.238 l 5.421 4.577 c 0.45 0.38 0.71 0.939 0.71 1.528 s -0.26 1.148 -0.71 1.528 l -5.421 4.577 C 83.494 87.97 83.036 88.125 82.58 88.125 z" style="stroke: none; stroke-width: 1; stroke-dasharray: none; stroke-linecap: butt; stroke-linejoin: miter; stroke-miterlimit: 10; fill: currentColor; fill-rule: nonzero; opacity: 1;" transform=" matrix(1 0 0 1 0 0) " stroke-linecap="round" />
	<path d="M 47.288 83.548 c -1.104 0 -2 -0.896 -2 -2 V 26.084 c 0 -1.104 0.896 -2 2 -2 s 2 0.896 2 2 v 55.463 C 49.288 82.652 48.393 83.548 47.288 83.548 z" style="stroke: none; stroke-width: 1; stroke-dasharray: none; stroke-linecap: butt; stroke-linejoin: miter; stroke-miterlimit: 10; fill: currentColor; fill-rule: nonzero; opacity: 1;" transform=" matrix(1 0 0 1 0 0) " stroke-linecap="round" />
	<path d="M 27.743 83.548 c -1.104 0 -2 -0.896 -2 -2 V 44.653 c 0 -1.104 0.896 -2 2 -2 s 2 0.896 2 2 v 36.895 C 29.743 82.652 28.848 83.548 27.743 83.548 z" style="stroke: none; stroke-width: 1; stroke-dasharray: none; stroke-linecap: butt; stroke-linejoin: miter; stroke-miterlimit: 10; fill: currentColor; fill-rule: nonzero; opacity: 1;" transform=" matrix(1 0 0 1 0 0) " stroke-linecap="round" />
	<path d="M 66.834 83.548 c -1.104 0 -2 -0.896 -2 -2 V 35.857 c 0 -1.104 0.896 -2 2 -2 s 2 0.896 2 2 v 45.691 C 68.834 82.652 67.938 83.548 66.834 83.548 z" style="stroke: none; stroke-width: 1; stroke-dasharray: none; stroke-linecap: butt; stroke-linejoin: miter; stroke-miterlimit: 10; fill: currentColor; fill-rule: nonzero; opacity: 1;" transform=" matrix(1 0 0 1 0 0) " stroke-linecap="round" />
</g>
</svg>