<svg viewBox="0 0 504 504" fill="none" xmlns="http://www.w3.org/2000/svg">
<path d="M252.102 325.853C289.672 325.853 320.238 294.978 320.238 257.027C320.238 219.076 289.672 188.201 252.102 188.201C214.531 188.201 183.965 219.076 183.965 257.027C183.965 294.978 214.531 325.853 252.102 325.853ZM252.102 195.541C285.626 195.541 312.899 223.124 312.899 257.028C312.899 290.932 285.626 318.515 252.102 318.515C218.578 318.515 191.305 290.932 191.305 257.028C191.305 223.124 218.578 195.541 252.102 195.541Z" fill="currentColor"/>
<path d="M252.102 302.858C277.126 302.858 297.484 282.298 297.484 257.028C297.484 231.758 277.126 211.199 252.102 211.199C227.077 211.199 206.718 231.758 206.718 257.028C206.718 282.298 227.077 302.858 252.102 302.858ZM252.102 218.537C273.079 218.537 290.145 235.804 290.145 257.027C290.145 278.251 273.078 295.517 252.102 295.517C231.125 295.517 214.058 278.251 214.058 257.027C214.058 235.804 231.125 218.537 252.102 218.537Z" fill="currentColor"/>
<path d="M401.789 320.344H351.55L359.729 305.87C360.72 304.117 360.112 301.893 358.368 300.887L344.077 292.638C346.577 286.049 348.372 279.197 349.432 272.196H365.867C367.893 272.196 369.537 270.553 369.537 268.527V245.531C369.537 243.504 367.893 241.861 365.867 241.861H349.432C348.384 234.943 346.618 228.168 344.161 221.646L358.473 213.431C360.22 212.428 360.832 210.206 359.846 208.45L348.609 188.453C348.13 187.6 347.329 186.973 346.386 186.713C345.44 186.452 344.432 186.58 343.584 187.068L329.302 195.265C324.624 189.303 319.298 183.909 313.411 179.172L321.594 164.689C322.585 162.936 321.978 160.712 320.234 159.706L300.475 148.302C299.628 147.813 298.619 147.683 297.674 147.939C296.729 148.197 295.928 148.822 295.446 149.674L287.302 164.087C280.805 161.575 274.051 159.771 267.149 158.701V142.046C267.149 140.019 265.506 138.376 263.479 138.376H240.726C238.7 138.376 237.057 140.019 237.057 142.046V158.7C230.236 159.757 223.558 161.534 217.128 164.002L209.017 149.567C208.538 148.714 207.737 148.087 206.793 147.827C205.848 147.566 204.84 147.694 203.992 148.182L184.207 159.537C182.46 160.54 181.848 162.762 182.834 164.518L189.463 176.314H100.315C76.2006 176.314 56.5827 156.469 56.5827 132.075C56.5827 107.681 76.2006 87.8344 100.315 87.8344H347.183C348.961 100.807 360.013 110.83 373.349 110.83C386.684 110.83 397.737 100.806 399.515 87.8344H440.398L423.83 104.581C422.404 106.021 422.416 108.345 423.857 109.771C424.573 110.478 425.506 110.832 426.438 110.832C427.384 110.832 428.329 110.469 429.046 109.743L451.799 86.7472C453.351 85.282 453.512 83.115 451.799 81.5847L429.046 58.5888C427.62 57.1484 425.297 57.1364 423.856 58.5612C422.415 59.9861 422.404 62.31 423.829 63.7513L440.397 80.4966H399.514C397.737 67.5238 386.684 57.4998 373.349 57.4998C360.013 57.4998 348.96 67.5238 347.183 80.4957H100.315C72.1537 80.4957 49.2431 103.635 49.2431 132.076C49.2431 160.517 72.1537 183.655 100.315 183.655H185.617C181.809 187.177 178.273 190.989 175.051 195.074L160.79 186.843C159.942 186.354 158.934 186.225 157.989 186.481C157.044 186.738 156.242 187.363 155.76 188.216L144.477 208.185C143.487 209.938 144.094 212.162 145.838 213.168L160.128 221.417C157.628 228.005 155.834 234.857 154.774 241.859H138.339C136.312 241.859 134.669 243.502 134.669 245.529V268.525C134.669 270.551 136.312 272.194 138.339 272.194H154.774C155.823 279.113 157.589 285.887 160.045 292.41L145.732 300.624C143.986 301.627 143.374 303.849 144.36 305.605L155.596 325.602C156.076 326.455 156.877 327.082 157.82 327.343C158.764 327.602 159.772 327.475 160.622 326.987L174.904 318.79C179.582 324.753 184.908 330.146 190.794 334.883L182.611 349.366C181.62 351.119 182.228 353.343 183.972 354.35L203.73 365.754C204.579 366.243 205.588 366.375 206.531 366.117C207.476 365.859 208.278 365.234 208.76 364.382L216.904 349.969C223.402 352.481 230.155 354.286 237.057 355.355V372.01C237.057 374.036 238.7 375.679 240.726 375.679H263.479C265.506 375.679 267.149 374.036 267.149 372.01V355.355C273.969 354.298 280.647 352.521 287.078 350.053L295.188 364.488C295.668 365.342 296.469 365.968 297.412 366.229C298.357 366.488 299.364 366.361 300.214 365.874L319.999 354.518C321.745 353.516 322.358 351.294 321.371 349.538L313.222 335.034C319.124 330.309 324.465 324.927 329.154 318.982L345.566 327.685H401.789C425.903 327.685 445.521 347.53 445.521 371.924C445.521 396.318 425.903 416.165 401.789 416.165H154.921C153.143 403.192 142.09 393.169 128.755 393.169C115.42 393.169 104.366 403.193 102.588 416.165H61.7058L78.274 399.419C79.6998 397.979 79.6878 395.655 78.2465 394.229C76.8061 392.805 74.4822 392.816 73.0565 394.257L50.3037 417.253C48.9165 418.786 48.9312 420.807 50.3037 422.415L73.0565 445.411C73.7739 446.137 74.7198 446.5 75.6648 446.5C76.5978 446.5 77.5309 446.147 78.2456 445.439C79.686 444.013 79.6979 441.69 78.2731 440.249L61.7049 423.503H102.587C104.366 436.475 115.42 446.499 128.755 446.499C142.09 446.499 153.144 436.475 154.921 423.503H401.788C429.949 423.503 452.86 400.364 452.86 371.923C452.86 343.482 429.95 320.344 401.789 320.344ZM373.349 64.8394C383.871 64.8394 392.432 73.5093 392.432 84.1655C392.432 94.8217 383.871 103.492 373.349 103.492C362.826 103.492 354.266 94.8217 354.266 84.1655C354.266 73.5093 362.825 64.8394 373.349 64.8394ZM343.876 319.004L330.027 311.011C328.409 310.077 326.348 310.509 325.238 312.013C319.876 319.293 313.495 325.726 306.273 331.133C304.798 332.236 304.371 334.262 305.273 335.868L313.191 349.962L299.772 357.664L291.895 343.646C290.981 342.016 288.988 341.335 287.265 342.064C279.541 345.334 271.389 347.504 263.038 348.514C261.195 348.737 259.808 350.301 259.808 352.157V368.34H244.395V352.157C244.395 350.301 243.009 348.737 241.166 348.514C232.736 347.494 224.517 345.296 216.733 341.979C215.013 341.247 213.018 341.922 212.099 343.549L204.19 357.547L190.788 349.812L198.74 335.739C199.646 334.135 199.224 332.109 197.751 331.001C190.549 325.582 184.184 319.132 178.834 311.833C177.729 310.325 175.668 309.889 174.047 310.819L160.177 318.78L152.536 305.182L166.448 297.198C168.049 296.279 168.717 294.315 168.011 292.611C164.772 284.794 162.623 276.546 161.623 268.096C161.404 266.249 159.838 264.858 157.979 264.858H142.006V249.201H157.979C159.838 249.201 161.404 247.81 161.623 245.963C162.633 237.431 164.811 229.114 168.095 221.241C168.806 219.538 168.141 217.571 166.543 216.649L152.653 208.632L160.325 195.052L174.174 203.046C175.793 203.98 177.854 203.55 178.963 202.044C184.327 194.762 190.708 188.33 197.929 182.925C199.079 182.04 199.664 180.069 198.929 178.189L191.01 164.095L204.429 156.393L212.305 170.411C213.221 172.04 215.213 172.723 216.935 171.993C224.66 168.723 232.811 166.553 241.163 165.543C243.006 165.321 244.392 163.756 244.392 161.9V145.716H259.806V161.898C259.806 163.754 261.192 165.319 263.035 165.542C271.466 166.561 279.686 168.759 287.468 172.076C289.187 172.808 291.182 172.132 292.102 170.505L300.011 156.508L313.412 164.243L305.461 178.317C304.554 179.921 304.977 181.948 306.45 183.055C313.653 188.474 320.017 194.924 325.367 202.223C326.472 203.731 328.533 204.167 330.154 203.237L344.024 195.276L351.665 208.874L337.753 216.858C336.152 217.777 335.484 219.741 336.19 221.446C339.429 229.263 341.579 237.511 342.578 245.96C342.797 247.807 344.363 249.199 346.222 249.199H362.195V264.855H346.222C344.363 264.855 342.797 266.247 342.578 268.093C341.569 276.624 339.391 284.942 336.106 292.815C335.395 294.518 336.06 296.485 337.658 297.407L351.548 305.425L343.876 319.004ZM128.755 439.16C118.233 439.16 109.672 430.49 109.672 419.834C109.672 409.177 118.233 400.507 128.755 400.507C139.277 400.507 147.838 409.177 147.838 419.834C147.838 430.49 139.277 439.16 128.755 439.16Z" fill="currentColor"/>
<path d="M37.7447 264.14C47.0862 264.14 54.6864 256.476 54.6864 247.055C54.6864 237.635 47.0862 229.972 37.7447 229.972C28.4023 229.972 20.8021 237.636 20.8021 247.056C20.8021 256.477 28.4023 264.14 37.7447 264.14ZM37.7447 237.312C43.0393 237.312 47.3468 241.684 47.3468 247.056C47.3468 252.43 43.0393 256.802 37.7447 256.802C32.4492 256.801 28.1417 252.43 28.1417 247.056C28.1417 241.683 32.4492 237.312 37.7447 237.312Z" fill="currentColor"/>
<path d="M66.1857 250.726H123.068C125.094 250.726 126.738 249.083 126.738 247.056C126.738 245.03 125.094 243.387 123.068 243.387H66.1857C64.159 243.387 62.5159 245.03 62.5159 247.056C62.5159 249.083 64.159 250.726 66.1857 250.726Z" fill="currentColor"/>
<path d="M37.7447 310.133C47.0862 310.133 54.6864 302.469 54.6864 293.048C54.6864 283.628 47.0862 275.964 37.7447 275.964C28.4023 275.965 20.8021 283.629 20.8021 293.049C20.8021 302.47 28.4023 310.133 37.7447 310.133ZM37.7447 283.305C43.0393 283.305 47.3468 287.677 47.3468 293.049C47.3468 298.423 43.0393 302.794 37.7447 302.794C32.4492 302.793 28.1417 298.423 28.1417 293.049C28.1417 287.676 32.4492 283.305 37.7447 283.305Z" fill="currentColor"/>
<path d="M66.1857 296.719H123.068C125.094 296.719 126.738 295.076 126.738 293.049C126.738 291.023 125.094 289.379 123.068 289.379H66.1857C64.159 289.379 62.5159 291.023 62.5159 293.049C62.5159 295.076 64.159 296.719 66.1857 296.719Z" fill="currentColor"/>
<path d="M37.7447 356.126C47.0862 356.126 54.6864 348.461 54.6864 339.041C54.6864 329.621 47.0862 321.956 37.7447 321.956C28.4023 321.957 20.8021 329.621 20.8021 339.042C20.8021 348.463 28.4023 356.126 37.7447 356.126ZM37.7447 329.297C43.0393 329.297 47.3468 333.668 47.3468 339.042C47.3468 344.415 43.0393 348.787 37.7447 348.787C32.4492 348.786 28.1417 344.414 28.1417 339.042C28.1417 333.669 32.4492 329.297 37.7447 329.297Z" fill="currentColor"/>
<path d="M66.1857 342.712H123.068C125.094 342.712 126.738 341.069 126.738 339.042C126.738 337.015 125.094 335.372 123.068 335.372H66.1857C64.159 335.372 62.5159 337.015 62.5159 339.042C62.5159 341.069 64.159 342.712 66.1857 342.712Z" fill="currentColor"/>
<path d="M394.205 136.278C384.863 136.278 377.262 143.942 377.262 153.362C377.262 162.783 384.863 170.447 394.205 170.447C403.547 170.447 411.148 162.783 411.148 153.362C411.148 143.942 403.547 136.278 394.205 136.278ZM394.205 163.107C388.91 163.107 384.602 158.735 384.602 153.361C384.602 147.988 388.91 143.617 394.205 143.617C399.5 143.617 403.808 147.989 403.808 153.362C403.808 158.736 399.5 163.107 394.205 163.107Z" fill="currentColor"/>
<path d="M479.528 151.402H422.646C420.619 151.402 418.976 153.045 418.976 155.072C418.976 157.098 420.619 158.741 422.646 158.741H479.528C481.555 158.741 483.198 157.098 483.198 155.072C483.198 153.045 481.555 151.402 479.528 151.402Z" fill="currentColor"/>
<path d="M394.205 182.27C384.863 182.27 377.262 189.935 377.262 199.355C377.262 208.776 384.863 216.439 394.205 216.439C403.547 216.439 411.148 208.775 411.148 199.354C411.148 189.934 403.547 182.27 394.205 182.27ZM394.205 209.099C388.91 209.099 384.602 204.728 384.602 199.354C384.602 193.981 388.91 189.609 394.205 189.609C399.501 189.609 403.808 193.981 403.808 199.354C403.808 204.728 399.5 209.099 394.205 209.099Z" fill="currentColor"/>
<path d="M479.528 195.685H422.646C420.619 195.685 418.976 197.328 418.976 199.354C418.976 201.381 420.619 203.024 422.646 203.024H479.528C481.555 203.024 483.198 201.381 483.198 199.354C483.198 197.328 481.555 195.685 479.528 195.685Z" fill="currentColor"/>
<path d="M394.205 228.262C384.863 228.262 377.262 235.927 377.262 245.347C377.262 254.768 384.863 262.431 394.205 262.431C403.547 262.431 411.148 254.767 411.148 245.347C411.148 235.927 403.547 228.262 394.205 228.262ZM394.205 255.091C388.91 255.091 384.602 250.72 384.602 245.347C384.602 239.974 388.91 235.602 394.205 235.602C399.501 235.602 403.808 239.974 403.808 245.347C403.808 250.72 399.5 255.091 394.205 255.091Z" fill="currentColor"/>
<path d="M479.528 241.677H422.646C420.619 241.677 418.976 243.321 418.976 245.347C418.976 247.374 420.619 249.017 422.646 249.017H479.528C481.555 249.017 483.198 247.374 483.198 245.347C483.198 243.321 481.555 241.677 479.528 241.677Z" fill="currentColor"/>
</svg>
