<svg xmlns="http://www.w3.org/2000/svg" xmlns:xlink="http://www.w3.org/1999/xlink" version="1.1" x="0px" y="0px" viewBox="0 0 120 120"  xml:space="preserve"><path fill="currentColor" d="M78.485,22.635l0.063,1.788c0.025,0.722,0.612,1.298,1.335,1.31l3.281,0.054c0.008,0,0.015,0,0.023,0  c0.709,0,1.3-0.546,1.353-1.255l0.143-1.881c0.184-0.069,0.365-0.143,0.544-0.224l1.31,1.221c0.529,0.493,1.351,0.485,1.87-0.018  l2.358-2.282c0.516-0.5,0.554-1.315,0.086-1.86l-1.229-1.43c0.082-0.178,0.157-0.359,0.227-0.543l1.788-0.063  c0.722-0.025,1.298-0.612,1.31-1.335l0.054-3.281c0.012-0.719-0.538-1.322-1.255-1.376l-1.88-0.142  c-0.068-0.184-0.143-0.365-0.224-0.544l1.22-1.309c0.493-0.529,0.485-1.351-0.018-1.87l-2.282-2.358  c-0.5-0.517-1.315-0.554-1.86-0.086L85.27,6.38c-0.178-0.082-0.36-0.157-0.543-0.227l-0.063-1.788  c-0.025-0.722-0.612-1.298-1.335-1.31l-3.281-0.054c-0.716-0.005-1.322,0.538-1.376,1.255L78.53,6.136  c-0.184,0.068-0.365,0.143-0.544,0.224l-1.31-1.221c-0.529-0.493-1.351-0.485-1.87,0.018l-2.358,2.282  c-0.516,0.5-0.554,1.315-0.086,1.86l1.229,1.43c-0.082,0.178-0.157,0.36-0.227,0.543l-1.788,0.063  c-0.722,0.025-1.298,0.612-1.31,1.335l-0.054,3.281c-0.012,0.719,0.538,1.322,1.255,1.376l1.881,0.143  c0.068,0.184,0.143,0.365,0.224,0.544l-1.221,1.31c-0.493,0.529-0.485,1.35,0.018,1.87l2.282,2.358  c0.5,0.516,1.315,0.554,1.86,0.086l1.43-1.229C78.12,22.49,78.301,22.565,78.485,22.635z M76.872,19.747l-1.16,0.996l-0.495-0.512  l0.996-1.069c0.413-0.444,0.483-1.107,0.17-1.627c-0.315-0.523-0.549-1.087-0.694-1.675c-0.141-0.569-0.631-0.984-1.215-1.028  l-1.524-0.116l0.012-0.712l1.459-0.051c0.606-0.021,1.124-0.442,1.27-1.03c0.146-0.59,0.38-1.154,0.695-1.675  c0.304-0.502,0.25-1.142-0.132-1.587l-0.996-1.16l0.512-0.495l1.069,0.996c0.444,0.413,1.107,0.482,1.627,0.169  c0.523-0.315,1.086-0.549,1.675-0.694c0.569-0.141,0.984-0.631,1.028-1.215l0.116-1.524l0.712,0.012l0.051,1.459  c0.021,0.606,0.442,1.124,1.031,1.27c0.589,0.146,1.153,0.38,1.675,0.695c0.502,0.303,1.142,0.25,1.587-0.132l1.16-0.996  l0.495,0.512l-0.996,1.069c-0.413,0.444-0.483,1.108-0.169,1.627c0.315,0.523,0.549,1.086,0.694,1.676  c0.141,0.569,0.631,0.984,1.216,1.028l1.524,0.115l-0.012,0.712l-1.459,0.051c-0.606,0.021-1.124,0.442-1.27,1.03  c-0.146,0.59-0.38,1.154-0.695,1.675c-0.303,0.502-0.25,1.142,0.132,1.587l0.996,1.16l-0.512,0.495l-1.069-0.996  c-0.444-0.413-1.108-0.483-1.627-0.169c-0.523,0.315-1.086,0.549-1.675,0.694c-0.569,0.141-0.984,0.631-1.028,1.215l-0.116,1.524  l-0.712-0.012l-0.051-1.459c-0.021-0.606-0.442-1.124-1.031-1.27c-0.589-0.146-1.153-0.38-1.675-0.695  C77.957,19.311,77.317,19.365,76.872,19.747z M81.534,18.745c0.025,0,0.049,0.001,0.074,0.001c1.135,0,2.206-0.433,3.024-1.224  c0.835-0.808,1.306-1.893,1.325-3.055c0.019-1.162-0.415-2.262-1.224-3.097c-0.808-0.835-1.893-1.306-3.055-1.325  c-0.024,0-0.048-0.001-0.073-0.001c-2.366,0-4.31,1.905-4.349,4.279c-0.019,1.162,0.415,2.262,1.224,3.097  C79.287,18.255,80.372,18.725,81.534,18.745z M81.605,12.759c0.009,0,0.022-0.002,0.027,0c0.437,0.007,0.845,0.184,1.148,0.498  c0.304,0.314,0.467,0.727,0.46,1.164c-0.007,0.437-0.184,0.845-0.498,1.149c-0.314,0.304-0.728,0.469-1.164,0.46  c-0.437-0.007-0.845-0.184-1.149-0.498c-0.304-0.314-0.467-0.727-0.46-1.164C79.985,13.475,80.716,12.759,81.605,12.759z   M53.227,40.276c-3.901,0-6.901,2.87-7.134,6.825c-0.124,2.106,0.73,4.151,2.343,5.61c0.83,0.752,0.855,1.457,0.832,2.979  c-0.003,0.212-0.007,0.429-0.007,0.651c0,0.635,0.247,1.211,0.714,1.665c0.871,0.846,2.226,0.996,3.078,0.996  c0.06,0,0.118-0.001,0.173-0.002c0.83,0.02,2.318-0.088,3.251-0.994c0.467-0.454,0.714-1.029,0.714-1.665  c0-0.222-0.003-0.438-0.007-0.651c-0.023-1.522,0.001-2.227,0.832-2.979c1.612-1.46,2.466-3.505,2.343-5.61  C60.128,43.146,57.128,40.276,53.227,40.276z M56.195,50.698c-1.007,0.911-1.434,1.89-1.611,2.86v-2.657  c0-0.75-0.608-1.358-1.358-1.358c-0.75,0-1.358,0.608-1.358,1.358v2.658c-0.177-0.97-0.604-1.949-1.611-2.86  c-0.999-0.905-1.53-2.158-1.454-3.438c0.145-2.473,2.005-4.269,4.423-4.269s4.278,1.795,4.423,4.269  C57.725,48.54,57.195,49.793,56.195,50.698z M51.869,38.454V37.7c0-0.75,0.608-1.358,1.358-1.358s1.358,0.608,1.358,1.358v0.754  c0,0.75-0.608,1.358-1.358,1.358S51.869,39.204,51.869,38.454z M46.911,42.428c-0.347,0-0.695-0.133-0.96-0.398l-0.533-0.533  c-0.53-0.53-0.53-1.39,0-1.92c0.53-0.53,1.39-0.53,1.92,0l0.533,0.533c0.53,0.53,0.53,1.39,0,1.92  C47.605,42.296,47.258,42.428,46.911,42.428z M45.652,47.387c0,0.75-0.608,1.358-1.358,1.358H43.54c-0.75,0-1.358-0.608-1.358-1.358  c0-0.75,0.608-1.358,1.358-1.358h0.754C45.044,46.029,45.652,46.637,45.652,47.387z M64.271,47.387c0,0.75-0.608,1.358-1.358,1.358  h-0.754c-0.75,0-1.358-0.608-1.358-1.358s0.608-1.358,1.358-1.358h0.754C63.663,46.029,64.271,46.637,64.271,47.387z M61.036,41.498  l-0.533,0.533c-0.265,0.265-0.613,0.398-0.96,0.398s-0.695-0.133-0.96-0.398c-0.53-0.53-0.53-1.39,0-1.92l0.533-0.533  c0.53-0.53,1.39-0.53,1.92,0C61.566,40.108,61.566,40.967,61.036,41.498z M22.383,38.545c0-1.411-0.546-2.734-1.539-3.726  c-0.992-0.992-2.316-1.539-3.726-1.539c-1.411,0-2.734,0.546-3.726,1.539l-0.7,0.7l-0.7-0.7C11,33.826,9.676,33.28,8.266,33.28  c-1.411,0-2.734,0.546-3.726,1.539s-1.539,2.316-1.539,3.726c0,1.411,0.546,2.734,1.539,3.726l7.192,7.192  c0.255,0.255,0.6,0.398,0.96,0.398c0.36,0,0.705-0.143,0.96-0.398l7.192-7.192C21.836,41.279,22.383,39.955,22.383,38.545z   M18.924,40.351l-6.232,6.232L6.46,40.351c-0.479-0.479-0.743-1.121-0.743-1.806c0-0.685,0.264-1.327,0.743-1.806  s1.121-0.743,1.806-0.743c0.685,0,1.327,0.264,1.806,0.743l1.66,1.66c0.255,0.255,0.6,0.398,0.96,0.398  c0.36,0,0.705-0.143,0.96-0.398l1.66-1.66c0.479-0.479,1.121-0.743,1.806-0.743s1.327,0.264,1.806,0.743s0.743,1.121,0.743,1.806  C19.667,39.23,19.403,39.871,18.924,40.351z M63.332,33.682c-0.014-0.01-0.028-0.019-0.043-0.028  c-4.267-2.692-8.853-3.933-13.626-3.689c-1.48,0.076-2.912,0.289-4.378,0.652c-0.01,0.002-0.02,0.005-0.03,0.008  c-9.163,2.486-16.053,10.12-17.553,19.447c-0.133,0.827-0.08,1.436-0.038,1.925c0.029,0.337,0.05,0.58,0.01,0.846  c-0.405,2.682-5.027,7.925-6.547,9.648c-0.061,0.069-0.115,0.145-0.161,0.225c-0.396,0.693-0.415,1.53-0.05,2.238  c0.364,0.708,1.056,1.179,1.85,1.261l2.912,0.298c0,0.011,0,0.021,0,0.031l-0.018,4.127c-0.002,0.506,0.277,0.97,0.724,1.206  c0.19,0.1,0.381,0.191,0.574,0.271c-0.163,0.603-0.196,1.282-0.079,1.988c0.215,1.294,0.872,2.311,1.777,2.835  c0.006,0.787-0.108,1.598-0.219,2.39c-0.245,1.741-0.498,3.542,0.821,4.7c1.297,1.138,3.578,1.119,7.875-0.068  c1.231-0.34,2.105-0.3,2.598,0.119c1.251,1.063,0.85,4.775,0.635,6.769c-0.023,0.217-0.046,0.425-0.066,0.624  c-0.04,0.392,0.092,0.782,0.363,1.069c0.257,0.273,0.615,0.426,0.988,0.426c0.02,0,0.039,0,0.059-0.001l18.966-0.818  c0.727-0.031,1.301-0.631,1.299-1.359l-0.021-11.007c-0.003-1.609,0.336-3.778,1.101-4.997c0.277-0.442,0.413-0.649,0.844-1.269  c0.642-0.929,1.293-1.843,1.924-2.727c4.184-5.87,8.137-11.414,7.732-19.295C73.189,44.385,69.462,37.881,63.332,33.682z   M63.611,69.245c-0.636,0.892-1.293,1.814-1.944,2.756c-0.457,0.657-0.613,0.895-0.912,1.372c-1.124,1.791-1.52,4.504-1.516,6.446  l0.019,9.704l-16.091,0.694c0.286-2.878,0.43-6.386-1.676-8.176c-0.776-0.66-1.751-0.99-2.912-0.99  c-0.663,0-1.386,0.108-2.167,0.324c-4.507,1.244-5.287,0.71-5.361,0.645c-0.218-0.191-0.019-1.603,0.076-2.282  c0.167-1.185,0.355-2.529,0.168-3.924c-0.083-0.621-0.582-1.105-1.205-1.17c-0.155-0.016-0.433-0.365-0.53-0.954  c-0.082-0.491,0.005-0.879,0.107-1.065c0.721-0.039,1.453-0.206,2.192-0.502c0.696-0.279,1.034-1.069,0.756-1.765  c-0.279-0.696-1.068-1.035-1.765-0.756c-0.556,0.223-1.07,0.33-1.572,0.32c-0.025-0.002-0.051-0.002-0.077-0.002  c-0.275-0.012-0.546-0.059-0.818-0.141l0.014-3.21c0.003-0.297,0.007-0.704-0.074-1.105c-0.27-1.337-1.273-1.541-1.575-1.572  l-2.969-0.304c4.199-4.84,6.238-8.047,6.584-10.34c0.088-0.585,0.047-1.064,0.01-1.486c-0.036-0.41-0.066-0.763,0.013-1.258  c1.331-8.271,7.441-15.042,15.569-17.254c1.29-0.318,2.55-0.505,3.85-0.572c4.196-0.215,8.238,0.882,12.016,3.259  c5.493,3.771,8.698,9.356,9.025,15.729C71.199,58.602,67.682,63.534,63.611,69.245z M35.358,17.044l-0.089,2.933  c-0.018,0.578,0.333,1.104,0.873,1.31c0.158,0.06,0.321,0.089,0.484,0.089c0.393,0,0.777-0.171,1.04-0.485l3.122-3.719H44.4  c0.135,2.579,2.276,4.636,4.889,4.636h5.924l3.122,3.719c0.263,0.314,0.647,0.485,1.04,0.485c0.162,0,0.326-0.029,0.484-0.089  c0.54-0.206,0.891-0.732,0.873-1.31l-0.089-2.933c2.165-0.505,3.783-2.451,3.783-4.768v-4.38c0-2.7-2.196-4.896-4.896-4.896H51.6  c-0.135-2.579-2.276-4.636-4.889-4.636H36.471c-2.699,0-4.896,2.196-4.896,4.896v4.38C31.575,14.593,33.192,16.539,35.358,17.044z   M61.71,12.533v4.38c0,1.202-0.978,2.18-2.18,2.18h-0.283c-0.367,0-0.719,0.149-0.975,0.412s-0.394,0.62-0.383,0.987l0.009,0.292  l-1.013-1.207c-0.258-0.307-0.639-0.485-1.04-0.485h-6.557c-1.202,0-2.18-0.978-2.18-2.18v-4.38c0-1.202,0.978-2.18,2.18-2.18  h10.241C60.731,10.352,61.71,11.33,61.71,12.533z M34.29,7.897c0-1.202,0.978-2.18,2.18-2.18h10.241c1.121,0,2.046,0.85,2.166,1.939  c-2.508,0.21-4.485,2.316-4.485,4.877v1.924h-4.238c-0.401,0-0.782,0.177-1.04,0.485l-1.013,1.207l0.009-0.292  c0.011-0.367-0.127-0.723-0.383-0.987c-0.256-0.264-0.607-0.412-0.975-0.412h-0.283c-1.202,0-2.18-0.978-2.18-2.18V7.897z   M13.477,23.953c5.777,0,10.476-4.7,10.476-10.476s-4.7-10.476-10.476-10.476C7.7,3.001,3.001,7.7,3.001,13.477  S7.7,23.953,13.477,23.953z M13.477,5.716c4.279,0,7.761,3.481,7.761,7.761c0,4.279-3.481,7.761-7.761,7.761  c-4.279,0-7.761-3.481-7.761-7.761C5.716,9.198,9.198,5.716,13.477,5.716z M8.715,16.226c-0.375-0.649-0.152-1.48,0.497-1.855  l2.907-1.678V9.54c0-0.75,0.608-1.358,1.358-1.358c0.75,0,1.358,0.608,1.358,1.358v3.937c0,0.485-0.259,0.933-0.679,1.176  l-3.586,2.07c-0.214,0.123-0.447,0.182-0.678,0.182C9.423,16.905,8.967,16.661,8.715,16.226z M91.641,35.331h-2.183  c-0.576-1.798-2.263-3.103-4.25-3.103c-1.987,0-3.674,1.305-4.25,3.103h-2.183c-0.75,0-1.358,0.608-1.358,1.358v3.33  c0,0.75,0.608,1.358,1.358,1.358c0.962,0,1.745,0.783,1.745,1.745c0,0.962-0.783,1.745-1.745,1.745c-0.75,0-1.358,0.608-1.358,1.358  v3.33c0,0.75,0.608,1.358,1.358,1.358h12.865c0.75,0,1.358-0.608,1.358-1.358V36.689C92.999,35.939,92.391,35.331,91.641,35.331z   M90.284,48.197h-10.15v-0.825c1.798-0.576,3.103-2.263,3.103-4.25c0-1.986-1.305-3.674-3.103-4.25v-0.825h1.972  c0.75,0,1.358-0.608,1.358-1.358c0-0.962,0.783-1.745,1.745-1.745c0.962,0,1.745,0.783,1.745,1.745c0,0.75,0.608,1.358,1.358,1.358  h1.972V48.197z M50.269,12.949c0-0.75,0.608-1.358,1.358-1.358h5.564c0.75,0,1.358,0.608,1.358,1.358s-0.608,1.358-1.358,1.358  h-5.564C50.877,14.306,50.269,13.699,50.269,12.949z M50.269,16.248c0-0.75,0.608-1.358,1.358-1.358h5.564  c0.75,0,1.358,0.608,1.358,1.358c0,0.75-0.608,1.358-1.358,1.358h-5.564C50.877,17.606,50.269,16.998,50.269,16.248z"/></svg>