<svg xmlns="http://www.w3.org/2000/svg" xmlns:xlink="http://www.w3.org/1999/xlink" version="1.1" x="0px" y="0px" viewBox="0 0 512 512" xml:space="preserve"><style type="text/css">
	.st0{fill-rule:evenodd;clip-rule:evenodd;}
</style><path fill="currentColor" class="st0" d="M159.56,393.595c-2.158-0.261-4.244-1.215-5.89-2.861l-28.508-28.508c-3.919-3.919-3.918-10.293,0-14.212  l12.608-12.608c0.709-0.709,0.815-1.715,0.302-2.543c-7.904-12.756-13.654-26.689-17.051-41.184  c-0.225-0.96-0.998-1.575-1.999-1.575h-17.847c-5.54,0-10.05-4.509-10.05-10.05v-40.316c0-5.54,4.51-10.049,10.05-10.049h17.849  c1.002,0,1.774-0.616,1.999-1.575c3.402-14.503,9.143-28.42,17.051-41.183c0.513-0.828,0.407-1.834-0.302-2.543l-12.61-12.61  c-3.919-3.919-3.918-10.293,0-14.212l28.508-28.508c3.957-3.957,10.466-3.868,14.204,0.008l0.008-0.008l12.61,12.61  c0.709,0.709,1.715,0.815,2.543,0.302c12.75-7.902,26.694-13.653,41.183-17.05c0.959-0.225,1.575-0.998,1.575-1.999v-17.85  c0-5.54,4.509-10.05,10.05-10.05h40.316c5.54,0,10.05,4.51,10.05,10.05v17.842c0,1.008,0.603,1.772,1.575,1.999  c14.49,3.393,28.437,9.153,41.187,17.053c0.829,0.513,1.835,0.407,2.543-0.302l12.606-12.606c3.957-3.957,10.466-3.868,14.204,0.008  l0.008-0.008l28.508,28.508c3.918,3.918,3.919,10.293,0,14.212l-12.61,12.61c-0.709,0.709-0.815,1.714-0.302,2.543  c7.897,12.738,13.658,26.706,17.05,41.183c0.225,0.959,0.998,1.575,1.999,1.575h17.85c5.54,0,10.05,4.51,10.05,10.05v40.316  c0,5.54-4.51,10.05-10.05,10.05h-17.842c-1.001,0-1.775,0.616-1.999,1.575c-3.397,14.491-9.15,28.435-17.053,41.187  c-0.513,0.828-0.407,1.835,0.302,2.543l12.606,12.606c3.918,3.917,3.918,10.292,0,14.211l-28.508,28.508  c-1.646,1.646-3.732,2.6-5.89,2.861c0.444,3.747,0.673,7.557,0.673,11.419v56.999c0,20.928-17.06,37.987-37.987,37.987h-120.68  c-19.591,0-35.56-15.97-35.56-35.56v-59.426C158.886,401.152,159.116,397.342,159.56,393.595L159.56,393.595z M18.882,18.881  C14.294,23.469,12,29.482,12,35.494C12,54.368,33.178,65.45,48.655,54.96l77.987,81.219c3.637,3.784,9.391-1.742,5.75-5.531  L54.409,49.434c3.052-4.131,4.579-9.035,4.579-13.94C58.988,14.618,33.636,4.127,18.882,18.881L18.882,18.881z M35.494,20  c8.558,0,15.494,6.936,15.494,15.494c0,13.754-16.713,20.694-26.45,10.956C14.8,36.712,21.741,20,35.494,20L35.494,20z M12,259.899  c0-20.861,25.341-31.378,40.106-16.613c3.357,3.357,5.703,7.726,6.542,12.61h18.478c5.266,0,5.266,8,0,8H58.649  c-3.194,18.62-26.258,26.124-39.767,12.615C14.63,272.26,12,266.386,12,259.899L12,259.899z M24.538,248.943  c-9.735,9.734-2.807,26.45,10.956,26.45c13.776,0,20.678-16.728,10.956-26.45C40.4,242.892,30.588,242.892,24.538,248.943  L24.538,248.943z M18.881,493.118c4.588,4.588,10.6,6.882,16.613,6.882c18.865,0,29.948-21.161,19.477-36.638l77.311-74.107  c3.784-3.633-1.739-9.391-5.531-5.75L49.45,457.603c-4.134-3.06-9.045-4.591-13.956-4.591  C14.617,453.012,4.127,478.364,18.881,493.118L18.881,493.118z M20,476.506c0-8.558,6.936-15.494,15.494-15.494  c13.754,0,20.694,16.713,10.957,26.45C36.712,497.2,20,490.259,20,476.506L20,476.506z M493.118,493.119  c4.588-4.588,6.882-10.6,6.882-16.613c0-20.293-24.156-31.025-39.204-17.469l-75.485-75.485c-3.723-3.723-9.38,1.933-5.656,5.656  l76.159,76.159c-1.868,3.466-2.802,7.303-2.802,11.139C453.012,497.383,478.364,507.873,493.118,493.119L493.118,493.119z   M476.506,492c-8.558,0-15.494-6.936-15.494-15.494c0-13.754,16.713-20.694,26.45-10.957C497.2,475.288,490.259,492,476.506,492  L476.506,492z M500,259.897c0,20.86-25.34,31.379-40.106,16.612c-3.358-3.358-5.704-7.728-6.542-12.612h-18.478  c-5.266,0-5.266-8,0-8h18.478c3.193-18.617,26.257-26.122,39.767-12.612C497.37,247.536,500,253.41,500,259.897L500,259.897z   M487.462,270.853c9.736-9.736,2.805-26.45-10.956-26.45s-20.692,16.714-10.956,26.45  C471.6,276.903,481.412,276.904,487.462,270.853L487.462,270.853z M493.119,18.882c-4.588-4.588-10.6-6.882-16.613-6.882  c-20.294,0-31.025,24.157-17.469,39.204l-79.382,79.382c-3.723,3.723,1.933,9.38,5.656,5.656l80.056-80.056  c3.466,1.868,7.303,2.802,11.139,2.802C497.383,58.988,507.873,33.636,493.119,18.882L493.119,18.882z M492,35.494  c0,8.558-6.936,15.494-15.494,15.494c-13.754,0-20.694-16.713-10.957-26.45C475.288,14.8,492,21.741,492,35.494L492,35.494z M256,12  c20.859,0,31.379,25.339,16.613,40.106c-3.358,3.358-7.728,5.704-12.613,6.542v22.375c0,5.266-8,5.266-8,0V58.648  c-18.618-3.194-26.122-26.258-12.613-39.767C243.639,14.631,249.512,12,256,12L256,12z M266.956,24.538  c-9.735-9.735-26.45-2.806-26.45,10.956c0,13.762,16.716,20.691,26.45,10.956C273.006,40.4,273.007,30.589,266.956,24.538  L266.956,24.538z M301.509,442.598h43.604v-37.584c0-49.004-40.108-89.113-89.113-89.113c-49.004,0-89.114,40.108-89.114,89.113  v37.584h43.605v-66.621c0-5.266,8-5.266,8,0V492h75.018V375.977c0-5.266,8-5.266,8,0V442.598L301.509,442.598z M345.113,450.598  h-43.604V492h13.617c16.51,0,29.987-13.476,29.987-29.987V450.598L345.113,450.598z M210.491,450.598h-43.605v13.842  c0,15.174,12.386,27.56,27.56,27.56h16.045V450.598L210.491,450.598z M256,203.894c30.929,0,56.004,25.075,56.004,56.004  c0,22.253-13.054,41.875-32.573,50.88c11.484,2.872,22.176,7.801,31.655,14.37c38.214-32.357,40.611-90.303,5.29-125.624  c-33.342-33.342-87.406-33.342-120.748,0c-35.343,35.343-32.902,93.283,5.289,125.623c9.479-6.569,20.169-11.498,31.653-14.369  c-35.231-16.253-43.815-62.834-16.169-90.48C226.535,210.162,240.536,203.894,256,203.894L256,203.894z M289.944,225.954  c-18.746-18.746-49.141-18.746-67.888,0c-18.746,18.746-18.746,49.142,0,67.888c18.746,18.746,49.142,18.746,67.888,0  C308.69,275.095,308.69,244.7,289.944,225.954L289.944,225.954z M351.165,385.677l1.508-0.599l28.508-28.508  c0.793-0.793,0.793-2.105-0.001-2.898l-12.606-12.606c-3.311-3.311-3.909-8.381-1.426-12.387  c7.457-12.03,12.837-25.092,16.053-38.812c1.073-4.579,5.097-7.762,9.78-7.762h17.842c1.123,0,2.05-0.926,2.05-2.05v-40.316  c0-1.124-0.926-2.05-2.05-2.05h-17.85c-4.683,0-8.707-3.183-9.78-7.762c-3.215-13.714-8.595-26.783-16.049-38.808  c-2.483-4.006-1.885-9.075,1.426-12.387l12.61-12.61c0.794-0.794,0.794-2.106,0-2.899l-28.508-28.508l0.008-0.008  c-0.788-0.78-2.109-0.79-2.907,0.008l-12.606,12.606c-3.312,3.312-8.382,3.909-12.387,1.426  c-12.034-7.459-25.088-12.836-38.812-16.053c-4.553-1.067-7.762-5.093-7.762-9.781v-17.842c0-1.124-0.926-2.05-2.05-2.05h-40.316  c-1.124,0-2.05,0.926-2.05,2.05v17.85c0,4.684-3.184,8.707-7.762,9.78c-13.719,3.217-26.778,8.594-38.808,16.05  c-4.005,2.483-9.075,1.885-12.387-1.426l-12.61-12.61l0.008-0.008c-0.788-0.78-2.11-0.789-2.907,0.008l-28.508,28.508  c-0.794,0.794-0.794,2.106,0,2.899l12.61,12.61c3.312,3.312,3.909,8.382,1.426,12.387c-7.459,12.036-12.832,25.082-16.051,38.808  c-1.074,4.578-5.097,7.762-9.78,7.762h-17.849c-1.123,0-2.05,0.926-2.05,2.049v40.316c0,1.124,0.926,2.05,2.05,2.05h17.847  c4.683,0,8.708,3.184,9.78,7.763c3.215,13.719,8.595,26.779,16.051,38.809c2.483,4.005,1.885,9.075-1.426,12.387l-12.608,12.608  c-0.794,0.794-0.794,2.106,0,2.899l28.508,28.508l1.507,0.599c4.508-22.093,16.597-41.613,33.566-55.6  c-40.69-35.977-42.481-98.158-4.429-136.21c36.467-36.467,95.593-36.467,132.061,0c38.053,38.053,36.255,100.284-4.43,136.211  C334.569,344.066,346.657,363.583,351.165,385.677z"/></svg>