<svg viewBox="0 0 512 512" fill="none" xmlns="http://www.w3.org/2000/svg">
<path d="M225.472 302.3L230.872 306.7L221.972 317.5L186.872 288.6L221.972 259.7L230.872 270.5L208.772 288.6L225.472 302.3ZM273.572 242.9L277.072 236.8L289.172 243.7L233.572 340.1L221.472 333.2L273.572 242.9ZM294.072 313L288.672 317.4L279.772 306.6L301.872 288.5L279.872 270.4L288.772 259.6L323.872 288.5L294.072 313ZM76.3719 304.4V316.6H125.772V330.5H76.3719V349.7H24.0719V297.4H76.3719V304.4ZM62.3719 335.7V311.4H38.0719V335.7H62.3719ZM234.772 100.7H222.572V150.2H208.672V100.7H189.472V48.4H241.772V100.7H234.772ZM203.472 86.7H227.772V62.4H203.472V86.7ZM76.3719 202.2V214.4H125.772V228.3H76.3719V247.5H24.0719V195.2H76.3719V202.2ZM62.3719 233.5V209.2H38.0719V233.5H62.3719ZM64.9719 89.7V120.7H95.9719V89.7H64.9719ZM50.9719 127.6V75.6H109.972V126.2L132.972 149.2L123.072 159.1L98.5719 134.6H50.9719V127.6ZM481.672 111.6C490.972 120.9 489.572 138.2 479.672 158.5C475.172 167.9 468.772 178.1 460.972 188.7C468.872 199.2 475.172 209.5 479.672 218.9C489.472 239.3 490.972 256.5 481.672 265.9C473.972 273.5 461.072 273.9 445.372 268.4V386.1H322.672L351.572 417.5H375.772V463.6H204.972V417.4H229.272L258.172 386H135.472V165.4H332.972C322.172 145.8 315.772 123.3 327.472 111.6C336.772 102.3 354.072 103.7 374.372 113.6C383.772 118.1 393.972 124.5 404.572 132.3C415.072 124.4 425.372 118.1 434.772 113.6C455.072 103.7 472.372 102.3 481.672 111.6ZM451.972 200C441.172 212.8 428.772 225.3 415.872 236.1C423.172 241.3 434.472 248.5 440.772 251.3C441.072 251.4 441.472 251.6 441.772 251.8C456.072 258.6 467.172 260.5 471.672 255.9C476.272 251.3 474.172 239.8 467.072 224.9C463.372 217.2 458.272 208.7 451.972 200ZM404.572 245.1C394.072 253 383.872 259.3 374.372 263.8C330.272 285.1 308.172 262.9 329.372 218.8C332.072 213.2 335.372 207.4 339.272 201.3H174.872V349.9H405.972V246.1C405.472 245.8 404.972 245.4 404.572 245.1ZM357.072 177.3C367.872 164.4 380.272 152 393.172 141.2C384.472 134.9 376.072 129.8 368.272 126.1C353.372 119 341.872 116.8 337.272 121.5C332.672 126.1 334.772 137.6 341.872 152.5C345.972 160.7 351.472 169.5 357.072 177.3ZM467.172 152.4C474.272 137.5 476.472 126 471.772 121.4C467.172 116.8 455.672 118.9 440.772 126C433.072 129.7 424.572 134.8 415.872 141.1C428.672 151.9 441.172 164.3 451.972 177.2C458.272 168.6 463.372 160.2 467.172 152.4ZM404.572 150C390.772 161.3 377.172 174.9 365.872 188.7C377.172 202.5 390.772 216.1 404.572 227.4C418.372 216.1 431.972 202.5 443.272 188.7C431.972 174.9 418.372 161.3 404.572 150ZM357.072 200C350.772 208.7 345.672 217.1 341.972 224.9C334.872 239.8 332.672 251.3 337.372 255.9C341.972 260.5 353.472 258.4 368.372 251.3C376.072 247.6 384.572 242.5 393.272 236.2C380.372 225.3 367.872 212.9 357.072 200ZM431.372 262.1C427.672 260.2 423.872 258 419.972 255.6V363.9H160.872V187.4H347.172C345.172 184.7 343.272 182 341.572 179.4H149.472V372H431.372V262.1ZM314.272 397.5L303.672 386H277.072L248.272 417.4H332.572L314.272 397.5ZM361.772 431.4H218.972V449.5H361.772V431.4Z" fill="currentColor"/>
</svg>
