<svg viewBox="0 0 110 110" fill="none" xmlns="http://www.w3.org/2000/svg">
<path fill-rule="evenodd" clip-rule="evenodd" d="M16.239 72.1848C15.6843 72.1653 15.2429 71.7083 15.2429 71.1536C15.2429 70.5951 15.6843 70.138 16.239 70.1224H20.4734C21.0281 70.1381 21.4734 70.5951 21.4734 71.1536C21.4734 71.7083 21.0281 72.1653 20.4734 72.1848H16.239ZM53.204 87.1148H56.8017V83.1539H53.2119V87.1148H53.204ZM39.981 92.314H70.016C70.2582 92.314 70.4574 92.1148 70.4613 91.8726V89.6187C70.4574 89.3726 70.2621 89.1773 70.016 89.1773H39.985C39.7389 89.1773 39.5436 89.3726 39.5397 89.6187V91.8687C39.5436 92.1109 39.7428 92.3062 39.985 92.3102L39.981 92.314ZM44.3208 17.697L47.2153 21.3845H62.7813L65.6758 17.697H44.3208ZM89.1608 29.572C86.5553 26.9626 82.6335 26.1853 79.2311 27.5954C75.8249 29.0056 73.6022 32.3298 73.6022 36.0173C73.6022 39.7009 75.8249 43.0251 79.2311 44.4392C82.6334 45.8494 86.5553 45.0682 89.1608 42.4626C92.7233 38.9001 92.7233 33.131 89.1608 29.572ZM82.7155 24.8415C87.2389 24.8376 91.3132 27.5603 93.0435 31.7399C94.774 35.9157 93.8169 40.7243 90.6216 43.9199C87.4263 47.1152 82.6177 48.0722 78.4416 46.3418C74.2619 44.6152 71.5393 40.5371 71.5393 36.0178C71.5393 29.8459 76.5434 24.8415 82.7155 24.8415ZM83.2897 32.0407H83.2936C83.528 31.5407 84.1139 31.3181 84.6217 31.5329C85.1295 31.7478 85.3795 32.322 85.1842 32.8415L82.1412 39.9899C82.0435 40.2556 81.8443 40.4665 81.5865 40.5759C81.3287 40.6853 81.0357 40.6892 80.7779 40.5798C80.5201 40.4704 80.317 40.2595 80.2193 39.9977C80.1178 39.736 80.1295 39.4431 80.2506 39.1931L83.2936 32.0486L83.2897 32.0407ZM79.6842 37.5602C79.9069 37.7204 80.0553 37.9626 80.0983 38.2321C80.1451 38.4977 80.0787 38.7751 79.9186 38.9977C79.7623 39.2165 79.5201 39.3688 79.2506 39.4118C78.9811 39.4548 78.7037 39.3884 78.485 39.2282L75.1842 36.8493C74.9146 36.654 74.7584 36.3376 74.7623 36.0056C74.7662 35.6735 74.9264 35.361 75.1998 35.1735L78.485 32.8024C78.7037 32.6345 78.985 32.5602 79.2584 32.6032C79.5319 32.6423 79.778 32.7907 79.942 33.0173C80.1022 33.2438 80.1686 33.5251 80.1178 33.7985C80.0709 34.068 79.9147 34.3102 79.6842 34.4665L77.5436 36.0134L79.6842 37.5602ZM86.9459 39.2321L86.9498 39.2282C86.4889 39.5564 85.8482 39.4548 85.5162 38.9939C85.1881 38.5329 85.2896 37.8923 85.7467 37.5603L87.8912 36.0134L85.7467 34.4665V34.4704C85.3053 34.1305 85.2154 33.5016 85.5396 33.0524C85.8639 32.6032 86.4889 32.4899 86.9498 32.8024L90.231 35.1696C90.5006 35.361 90.6646 35.6735 90.6685 36.0055C90.6724 36.3375 90.5162 36.654 90.2467 36.8493L86.9459 39.2282L86.9459 39.2321ZM19.6609 83.7831C20.8836 83.6503 22.0906 84.1425 22.8718 85.0917C23.6569 86.041 23.9109 87.3184 23.5476 88.4902C23.1882 89.666 22.2624 90.58 21.0828 90.9277C19.9031 91.2753 18.6297 91.0058 17.6922 90.2128C16.575 89.2675 16.1258 87.744 16.5555 86.3456C16.9852 84.9472 18.2077 83.9394 19.6609 83.7831ZM21.0593 86.1737C20.5554 85.7675 19.8562 85.705 19.2859 86.0136C18.7195 86.3222 18.3914 86.9433 18.4617 87.5878C18.5281 88.2323 18.9773 88.7714 19.5984 88.955C20.2195 89.1347 20.8914 88.9276 21.2976 88.4237C21.5632 88.0956 21.6882 87.6737 21.6452 87.2479C21.5984 86.8261 21.3874 86.4394 21.0593 86.1737ZM33.9534 74.2247C33.969 74.2013 33.9885 74.1779 34.0081 74.1583L37.4222 69.9239L36.2386 68.9708L32.137 74.0567L33.3206 75.0098L33.9534 74.2286L33.9534 74.2247ZM45.4104 82.963V87.1153H39.9846C38.6057 87.1193 37.4885 88.2364 37.4846 89.6153V91.8653C37.4885 93.2442 38.6057 94.3614 39.9846 94.3653H70.0156C71.3945 94.3614 72.5117 93.2442 72.5156 91.8653V89.6192C72.5117 88.2403 71.3945 87.1231 70.0156 87.1192H64.9453V76.8182H95.8593C98.1484 76.8143 99.9999 74.9588 99.9999 72.6698V20.7088C99.9999 18.076 98.1249 15.6346 95.5155 15.6346H14.4845C11.8751 15.6346 10.0001 18.076 10.0001 20.7088V72.6698C10.004 74.955 11.8556 76.8065 14.1407 76.8104H22.6915L19.1368 81.2206C16.6759 81.5839 14.6602 83.369 14.004 85.7675C13.3477 88.1698 14.1759 90.7284 16.1134 92.2948C18.0509 93.8573 20.7267 94.1268 22.9376 92.9784C25.1446 91.83 26.4649 89.4862 26.3009 87.0018L35.0587 76.1428C36.1056 76.6624 37.1954 77.0921 38.3165 77.4358V81.9358C38.3165 82.2093 38.422 82.471 38.6173 82.6624C38.8087 82.8538 39.0704 82.9632 39.3438 82.9632L45.4104 82.963ZM61.3364 76.8107H62.8833V87.1117H58.856V82.8109C58.8638 81.8774 58.1177 81.1078 57.1802 81.0921H52.8208C51.8833 81.1078 51.1372 81.8773 51.145 82.8109V87.1117H47.4731V82.9633H49.6176H49.6137C49.8871 82.9633 50.1488 82.854 50.3442 82.6626C50.5356 82.4712 50.6449 82.2094 50.6449 81.936V77.436C51.973 77.0337 53.2582 76.4985 54.4808 75.8422L57.6683 79.0258L57.6644 79.0297C57.8597 79.2211 58.1215 79.3305 58.3949 79.3305C58.6683 79.3305 58.9301 79.2211 59.1215 79.0297L61.3363 76.8149L61.3364 76.8107ZM63.6294 67.5568H97.9384V72.6701C97.9345 73.8146 97.0087 74.7443 95.8603 74.7482H63.3993L66.3837 71.7638V71.7677C66.786 71.3654 66.786 70.713 66.3837 70.3107L63.6294 67.5568ZM24.9774 65.4943H12.0634V20.7093C12.0634 19.2093 13.0439 17.6937 14.4853 17.6937H41.7083L45.8763 23.0023C46.0677 23.2758 46.3841 23.4398 46.72 23.4398H63.282C63.5985 23.4398 63.8953 23.2953 64.0906 23.0453L68.2898 17.6937H95.5168C96.9582 17.6937 97.9387 19.2054 97.9387 20.7093V65.4943H63.9857L64.7865 63.2873H69.2865H69.2826C69.8529 63.2873 70.3138 62.8264 70.3138 62.2561V51.9901C70.3138 51.4198 69.8529 50.9589 69.2826 50.9589H64.7826C64.3842 49.6308 63.8568 48.3456 63.2006 47.123L66.3881 43.9355V43.9394C66.7904 43.5371 66.7904 42.8847 66.3881 42.4824L59.1264 35.2246V35.2207C58.935 35.0293 58.6733 34.9199 58.3998 34.9199C58.1264 34.9199 57.8647 35.0293 57.6694 35.2207L54.4819 38.4082C53.2592 37.7481 51.9741 37.2168 50.646 36.8144V32.3144C50.646 31.748 50.185 31.2871 49.6148 31.2871H39.3488C38.7785 31.2871 38.3176 31.7481 38.3176 32.3144V36.8144C36.9895 37.2168 35.7043 37.7519 34.4817 38.4082L31.302 35.2207C31.1067 35.0293 30.8449 34.9199 30.5715 34.9199C30.2981 34.9199 30.0363 35.0293 29.8449 35.2207L22.5871 42.4785V42.4824C22.3918 42.6738 22.2825 42.9355 22.2825 43.209C22.2825 43.4824 22.3918 43.7441 22.5871 43.9394L25.7707 47.1269V47.123C25.1145 48.3457 24.5793 49.6308 24.1809 50.9589H19.6809C19.1106 50.9589 18.6497 51.4199 18.6497 51.9901V62.2561C18.6497 62.5296 18.7591 62.7913 18.9505 62.9866C19.1458 63.178 19.4076 63.2874 19.681 63.2874H24.181L24.9857 65.4944L24.9774 65.4943ZM24.8915 74.0802L22.5751 71.7638L22.579 71.7677C22.3876 71.5724 22.2782 71.3107 22.2782 71.0373C22.2782 70.7638 22.3876 70.5021 22.579 70.3107L25.3329 67.5568H12.0629V72.6701C12.0668 73.8146 12.9926 74.7443 14.141 74.7482H24.356L24.895 74.0802L24.8915 74.0802ZM27.1181 74.592L20.4697 82.8381L20.4736 82.842C20.2939 83.0646 20.0282 83.2014 19.7431 83.2209C18.0204 83.3498 16.5478 84.5178 16.0322 86.1662C15.5205 87.8185 16.0673 89.6154 17.415 90.6974C18.7627 91.7833 20.6338 91.9318 22.1377 91.0763C23.6377 90.2208 24.4658 88.5333 24.2197 86.8224C24.1806 86.5333 24.2627 86.2443 24.4502 86.0216L32.044 76.6075L28.0792 73.4083L27.126 74.5919L27.1181 74.592ZM39.8481 70.1936L42.1098 67.3928H42.1176C46.2114 68.3303 50.4692 66.7404 52.9456 63.3498C55.4261 59.9592 55.6448 55.4162 53.5081 51.8028C53.3323 51.5059 53.0198 51.3145 52.676 51.2989C52.3284 51.2793 52.0003 51.4356 51.7932 51.7168L46.9143 57.7676L43.3401 54.8848L48.2503 48.795H48.2464C48.4652 48.5216 48.5316 48.1583 48.4222 47.8263C48.3128 47.4942 48.0394 47.2403 47.7035 47.1544C43.7191 45.8653 39.3519 47.0606 36.5825 50.1974C33.813 53.338 33.1723 57.8224 34.9497 61.6114L32.6919 64.4122V64.4083C29.1489 58.6661 30.2583 51.2093 35.3208 46.7443C40.3833 42.2834 47.9228 42.1193 53.1728 46.3576C58.4267 50.5959 59.8564 58.0026 56.5673 63.8926C53.2743 69.7832 46.2153 72.4434 39.8563 70.1895L39.8481 70.1936ZM31.3286 66.092L31.3364 66.0959C28.4419 61.8537 27.77 56.4787 29.5356 51.6549C31.2973 46.8346 35.2778 43.1627 40.2266 41.7877C45.1719 40.4166 50.4766 41.5142 54.4726 44.733C58.4687 47.9557 60.664 52.9088 60.371 58.034C60.078 63.159 57.328 67.8309 52.9921 70.573C48.6523 73.3191 43.2577 73.8035 38.5001 71.8738L36.3868 74.4949C37.3985 74.9675 38.4493 75.3503 39.5274 75.6394C40.0196 75.7292 40.3789 76.155 40.3789 76.655V80.9011H48.5781V76.655C48.5781 76.1862 48.8945 75.7722 49.3477 75.655C50.1875 75.4362 51.0079 75.1589 51.8047 74.8268C52.582 74.5065 53.332 74.1354 54.0586 73.7136C54.4687 73.4245 55.0273 73.4753 55.3828 73.8268L58.3984 76.8424L64.1992 71.0416L61.1992 68.0338C60.871 67.7018 60.8046 67.1901 61.039 66.7877C61.4765 66.0377 61.8632 65.2604 62.1952 64.4596C62.5155 63.6823 62.785 62.8893 62.9999 62.0768C63.0858 61.5846 63.5155 61.2253 64.0155 61.2253H68.2616V53.0261H64.0116C63.5428 53.0261 63.1366 52.7097 63.0194 52.2565C62.5819 50.6081 61.9296 49.0221 61.078 47.5456C60.7889 47.1355 60.8358 46.5769 61.1913 46.2253L64.1991 43.2097L58.3983 37.4089L55.3905 40.4089C55.0585 40.741 54.5506 40.8074 54.1444 40.5691C52.6678 39.7058 51.0858 39.0457 49.4335 38.6043C48.9413 38.5145 48.5819 38.0887 48.5819 37.5887V33.3465H40.3827V37.5926C40.3827 38.0613 40.0663 38.4715 39.6132 38.5887C37.9648 39.0223 36.3788 39.6746 34.9023 40.5262C34.4921 40.8152 33.9335 40.7684 33.582 40.4129L30.5742 37.4051L24.7734 43.2059L27.7734 46.2137V46.2176C28.1054 46.5457 28.1718 47.0575 27.9335 47.4598C27.0742 48.9364 26.414 50.5184 25.9726 52.1668C25.8828 52.659 25.457 53.0184 24.957 53.0184H20.6992V61.2176H24.9492C25.418 61.2176 25.8242 61.534 25.9414 61.9871C26.3125 63.366 26.8282 64.698 27.4805 65.9637L27.879 66.6981C28.168 67.1082 28.1212 67.6668 27.7657 68.0223L24.7657 71.0223L26.1954 72.452L31.336 66.0809L31.3286 66.092ZM33.438 66.7482L36.938 62.4123L36.9458 62.4162C37.2309 62.092 37.2856 61.6193 37.0747 61.2404C35.5278 58.4396 35.6919 55.006 37.5005 52.3654C39.313 49.7287 42.4575 48.3381 45.6255 48.7716L41.0943 54.3888L41.0982 54.3927C40.7427 54.8341 40.813 55.4786 41.2544 55.838L46.4302 60.0138V60.0099C46.8716 60.3654 47.52 60.2951 47.8755 59.8537L52.3989 54.2404C53.5005 57.2482 52.8091 60.6154 50.6137 62.9435C48.4184 65.2716 45.0981 66.1623 42.0317 65.2404C41.6294 65.1232 41.1997 65.256 40.9379 65.5802L38.7191 68.3224L36.7347 66.7208L36.7386 66.7247C36.2933 66.3692 35.6488 66.4396 35.2933 66.881L30.5511 72.7638L29.3675 71.8106L33.4105 66.795C33.4222 66.7794 33.434 66.7677 33.4457 66.7521L33.438 66.7482ZM74.727 53.4282C74.4496 53.4399 74.1762 53.3345 73.977 53.1392C73.7777 52.9438 73.6645 52.6782 73.6645 52.4009C73.6645 52.1196 73.7777 51.854 73.977 51.6587C74.1762 51.4634 74.4496 51.3579 74.727 51.3696H85.1059C85.6645 51.3852 86.1059 51.8423 86.1059 52.4008C86.1059 52.9555 85.6645 53.4125 85.1059 53.4281L74.727 53.4282ZM74.727 59.9907C74.1566 59.9907 73.6958 59.5298 73.6958 58.9595C73.6958 58.3892 74.1567 57.9283 74.727 57.9283H92.7189C93.2854 57.9283 93.7463 58.3893 93.7463 58.9595C93.7463 59.5298 93.2853 59.9907 92.7189 59.9907H74.727Z" fill="currentColor"/>
</svg>
