<svg viewBox="0 0 160 160" fill="none" xmlns="http://www.w3.org/2000/svg">
<path d="M62.5391 17.7C66.9391 10.7 72.8391 4.6 79.7391 0C86.5391 4.5 92.3391 10.5 96.7391 17.4C108.239 33.4 114.039 52.7 113.239 72.4C116.839 75.3 120.539 78.1 124.039 81C129.039 85.5 131.439 92.3 130.239 98.9C128.539 107.1 126.939 115.3 125.139 123.5C123.939 127.1 120.039 129 116.539 127.8C115.939 127.6 115.339 127.3 114.839 126.9C109.039 122.3 103.439 117.5 97.6391 112.8C87.7391 122.2 72.3391 122.3 62.3391 113C58.2391 116 54.3391 119.7 50.3391 123C48.5391 124.7 46.6391 126.3 44.4391 127.5C40.9391 128.9 36.9391 127.1 35.6391 123.6C35.5391 123.4 35.5391 123.2 35.4391 123.1C33.6391 115.1 31.6391 107.1 29.8391 99.1C28.4391 92.1 30.9391 85 36.3391 80.4C39.4391 77.9 42.6391 75.4 45.8391 72.9C46.7391 72.4 46.2391 71.4 46.3391 70.7C45.9391 51.8 51.6391 33.2 62.5391 17.7ZM68.2391 42.5C64.0391 47.9 64.5391 55.6 69.4391 60.4C75.0391 65.8 83.9391 66 89.7391 60.8C93.8391 57.1 95.2391 51.2 93.3391 46C91.3391 41 86.7391 37.5 81.3391 37.1C76.2391 36.5 71.3391 38.6 68.2391 42.5Z" fill="currentColor"/>
<path d="M60.85 131.278C60.95 129.378 62.65 127.978 64.45 128.178C64.95 128.178 65.45 128.378 65.85 128.578C74.75 132.878 85.15 132.878 94.15 128.578C95.85 127.678 97.85 128.378 98.75 129.978C98.95 130.278 99.05 130.678 99.15 131.078C99.15 136.078 99.15 141.078 99.15 146.078C98.95 147.878 97.25 149.278 95.45 149.078C94.85 148.978 94.35 148.778 93.85 148.478C92.35 147.178 91.05 145.778 89.55 144.478C87.25 148.778 85.15 153.078 82.85 157.378C81.85 158.978 79.75 159.378 78.15 158.378C77.75 158.178 77.45 157.778 77.25 157.478C74.95 153.178 72.85 148.878 70.45 144.578C69.05 145.978 67.65 147.378 66.15 148.578C64.65 149.678 62.45 149.278 61.45 147.678C61.15 147.178 60.95 146.678 60.85 146.078C60.85 141.178 60.85 136.178 60.85 131.278Z" fill="currentColor"/>
<path d="M79.7458 53.4627C80.4169 53.4933 80.9643 52.5755 80.982 51.413C80.9643 50.2504 80.4169 49.3327 79.7458 49.3327C79.0747 49.3021 78.5272 50.2198 78.5096 51.3824C78.5096 52.5449 79.0747 53.4933 79.7458 53.4627Z" fill="currentColor"/>
</svg>
